# xmcd
#
# Track frame offsets: 
#        150
#        15993
#        31657
#        47679
#        64306
#        85321
#        102632
#        119879
#        137894
#
# Disc length: 2047 seconds
#
# Revision: 0
# Processed by: cddbd v1.5.2PL0 Copyright (c) Steve Scherf et al.
# Submitted via: ExactAudioCopy v0.99pb5
#
DISCID=7b07fd09
DTITLE=Caitlin Linney - Caitlin Linney
DYEAR=1900
DGENRE=Country
TTITLE0=Home
TTITLE1=Poison
TTITLE2=Never Gonna Be
TTITLE3=Crazy
TTITLE4=Runaway
TTITLE5=Heartbeat
TTITLE6=Marie
TTITLE7=Paradise (Live)
TTITLE8=Home (Acoustic)
EXTD=
EXTT0=
EXTT1=
EXTT2=
EXTT3=
EXTT4=
EXTT5=
EXTT6=
EXTT7=
EXTT8=
PLAYORDER=
